<?xml version="1.0" encoding="utf-8"?>
<!-- Generator: Adobe Illustrator 19.0.0, SVG Export Plug-In . SVG Version: 6.00 Build 0)  -->
<svg version="1.1" id="Artboard_2" xmlns="http://www.w3.org/2000/svg" xmlns:xlink="http://www.w3.org/1999/xlink" x="0px" y="0px"
	 viewBox="-800 2908.2 964 336" style="enable-background:new -800 2908.2 964 336;" xml:space="preserve">
<style type="text/css">
	.st0{fill:url(#XMLID_2_);}
	.st1{fill:#F19004;}
	.st2{fill:#FFFFFF;}
	.st3{fill:#E85422;}
	.st4{fill:#309FD9;}
	.st5{fill:#274594;}
</style>
<g>
	
		<radialGradient id="XMLID_2_" cx="-318" cy="3584.1099" r="342.019" gradientTransform="matrix(1 0 0 -1 0 6601.1396)" gradientUnits="userSpaceOnUse">
		<stop  offset="0" style="stop-color:#0376BB"/>
		<stop  offset="0.5252" style="stop-color:#185AA5"/>
		<stop  offset="1" style="stop-color:#274594"/>
	</radialGradient>
	<path id="XMLID_325_" class="st0" d="M145.6,2916.4h-927.2c-5.3,0-9.5,4.3-9.5,9.5v182.3c0,5.3,4.3,9.5,9.5,9.5h927.2
		c5.3,0,9.5-4.3,9.5-9.5v-182.3C155.1,2920.6,150.8,2916.4,145.6,2916.4z"/>
	<path id="XMLID_324_" class="st1" d="M-191.9,3057.3h-71c-2.6,0-4.8-2.1-4.8-4.8v-71c0-2.6,2.1-4.8,4.8-4.8h71
		c2.6,0,4.8,2.1,4.8,4.8v71C-187.1,3055.2-189.3,3057.3-191.9,3057.3z"/>
	<path id="XMLID_323_" class="st2" d="M-194.8,3029.7c4.8-5,5.2-12.6,5.2-12.6h-31.9c0-0.9-0.2-1.7-0.5-2.4l26.5-11.7
		c-0.2-7-5.2-12.6-5.2-12.6l-22.5,22.5c-0.6-0.6-1.3-1-2.1-1.3l10.5-27.1c-5-4.8-12.6-5.2-12.6-5.2v31.9c-0.9,0-1.7,0.2-2.4,0.5
		l-11.7-26.5c-7,0.2-12.6,5.2-12.6,5.2l22.5,22.5c-0.6,0.6-1,1.3-1.3,2.1l-27.1-10.6c-4.8,5-5.2,12.6-5.2,12.6h31.9
		c0,0.9,0.2,1.7,0.5,2.4l-26.6,11.8c0.2,7,5.2,12.6,5.2,12.6l22.5-22.5c0.6,0.6,1.3,1,2.1,1.3l-10.4,27.1c5,4.8,12.6,5.2,12.6,5.2
		V3023c0.9,0,1.7-0.2,2.4-0.5l11.7,26.5c7-0.2,12.6-5.2,12.6-5.2l-22.5-22.5c0.6-0.6,1-1.3,1.3-2.1L-194.8,3029.7z"/>
	<path id="XMLID_322_" class="st3" d="M90,3057.3H19c-2.6,0-4.8-2.1-4.8-4.8v-71c0-2.6,2.1-4.8,4.8-4.8h71c2.6,0,4.8,2.1,4.8,4.8v71
		C94.7,3055.2,92.6,3057.3,90,3057.3z"/>
	<path id="XMLID_321_" class="st2" d="M84.3,3023.2c0-8.2-3.3-15.7-8.7-21.1L54.5,2981l-21.1,21.1c-5.4,5.4-8.7,12.9-8.7,21.1
		c0,16.5,13.4,29.8,29.8,29.8c-8.2,0-14.9-6.7-14.9-14.9c0-8.2,6.7-14.9,14.9-14.9s14.9,6.7,14.9,14.9c0,8.2-6.7,14.9-14.9,14.9
		C70.9,3053,84.3,3039.7,84.3,3023.2z"/>
	<path id="XMLID_320_" class="st4" d="M-473.7,3057.3h-71c-2.6,0-4.8-2.1-4.8-4.8v-71c0-2.6,2.1-4.8,4.8-4.8h71
		c2.6,0,4.8,2.1,4.8,4.8v71C-469,3055.2-471.1,3057.3-473.7,3057.3z"/>
	<path id="XMLID_319_" class="st2" d="M-477.3,3032.8l-8.2-4.7l6.9-4.1c1.1-0.5,1.5-2,0.8-3.1c-0.6-1.1-2-1.4-3.1-0.7l-9.2,5.4
		l-14.6-8.5l14.6-8.4l9.2,5.4c0.3,0.2,0.7,0.3,1.1,0.3c0.8,0,1.5-0.4,2-1.1c0.6-1.1,0.3-2.6-0.8-3.1l-6.9-4.1l8.2-4.7
		c1.1-0.6,1.4-2,0.8-3.1c-0.6-1.1-2-1.5-3.1-0.8l-8.2,4.8l-0.1-8.2c0-1.3-1-2.3-2.3-2.3s-2.3,1.1-2.3,2.3l0.1,10.8l-14.5,8.4v-17.1
		l9.2-5.2c1.1-0.6,1.5-2,0.9-3.1c-0.6-1.1-2-1.5-3.1-0.8l-7,3.9v-9.3c0-1.3-1-2.3-2.3-2.3s-2.3,1-2.3,2.3v9.4l-7.2-4
		c-1.1-0.6-2.4-0.3-3,0.8c-0.6,1.1-0.2,2.5,0.9,3.1l9.4,5.3v16.9l-14.9-8.6l0.1-10.6c0.1-1.2-0.9-2.3-2.2-2.3h-0.1
		c-1.2,0-2.2,1-2.3,2.3l-0.1,8l-8-4.6c-1.1-0.6-2.5-0.3-3.1,0.8s-0.3,2.5,0.8,3.1l8.1,4.7l-7.1,4.2c-1.1,0.5-1.5,2-0.8,3.1
		c0.4,0.7,1.1,1.1,1.9,1.1c0.5,0,0.8-0.1,1.2-0.3l9.2-5.5l14.8,8.5l-14.8,8.6l-9.2-5.5c-1.1-0.6-2.5-0.3-3.1,0.7
		c-0.6,1.1-0.3,2.5,0.8,3.1l7.1,4.2l-8.1,4.7c-1.1,0.6-1.5,2-0.8,3.1c0.5,0.8,1.1,1.1,1.9,1.1c0.2,0,0.6-0.1,1.2-0.3l8-4.6l0.1,8
		c0,1.3,1.1,2.3,2.3,2.3h0.1c1.3,0,2.2-1.1,2.2-2.3l-0.1-10.6l14.9-8.5v16.8l-9.4,5.3c-1.1,0.6-1.5,2-0.9,3.1
		c0.5,0.8,1.1,1.2,1.9,1.2c0.4,0,0.8-0.1,1.1-0.3l7.2-4.1v9.6c0,1.3,1,2.3,2.3,2.3s2.3-1,2.3-2.3v-9.5l7,3.9
		c0.3,0.2,0.7,0.3,1.1,0.3c0.9,0,1.6-0.4,2-1.2c0.6-1.1,0.2-2.5-0.9-3.1l-9.2-5.1v-17.1l14.5,8.4l-0.1,10.8c0,1.3,1,2.3,2.3,2.3
		s2.2-1,2.3-2.3l0.1-8.3l8.2,4.8c0.3,0.2,0.7,0.2,1.2,0.2c0.9,0,1.5-0.4,1.9-1.1C-475.8,3034.8-476.3,3033.4-477.3,3032.8z"/>
	<path id="XMLID_318_" class="st2" d="M-448.9,3082.2h-120.4c-2.8,0-5.1-2.3-5.1-5.1v-120.5c0-2.6,2.1-4.8,4.8-4.8s4.8,2.1,4.8,4.8
		v116h116c2.6,0,4.8,2.1,4.8,4.8S-446.2,3082.2-448.9,3082.2z"/>
	<path id="XMLID_317_" class="st2" d="M-26.1,3082.2h-120.5c-2.8,0-5.1-2.3-5.1-5.1V2957c0-2.8,2.3-5.1,5.1-5.1h120.5
		c2.6,0,4.8,2.1,4.8,4.8c0,2.6-2.1,4.8-4.8,4.8h-116v111.3h116c2.6,0,4.8,2.1,4.8,4.8C-21.3,3080.3-23.5,3082.2-26.1,3082.2z"/>
	<path id="XMLID_316_" class="st2" d="M-588.2,2952.7c-1.9-0.8-4.1-0.4-5.5,1.1l-120.2,120.3c-1.9,1.9-1.9,4.9,0,6.7
		c1.9,1.9,4.9,1.9,6.7,0l112.7-112.7v44.2H-630c-2.6,0-4.8,2.1-4.8,4.8c0,2.6,2.1,4.8,4.8,4.8h35.5v55.6c0,2.6,2.1,4.8,4.8,4.8
		c2.6,0,4.8-2.1,4.8-4.8v-120C-585,2955.3-586.3,2953.5-588.2,2952.7z"/>
	<path id="XMLID_315_" class="st2" d="M-167,3082.2h-120.5c-2.8,0-5.1-2.3-5.1-5.1v-120.5c0-2.6,2.1-4.8,4.8-4.8s4.8,2.1,4.8,4.8
		v116h116c2.6,0,4.8,2.1,4.8,4.8S-164.4,3082.2-167,3082.2z"/>
	<path id="XMLID_314_" class="st2" d="M-306.3,2952.7c-1.9-0.8-4.1-0.4-5.5,1.1l-120.3,120.3c-1.9,1.9-1.9,4.9,0,6.7
		c1.9,1.9,4.9,1.9,6.7,0l112.7-112.7v44.2h-35.5c-2.6,0-4.8,2.1-4.8,4.8c0,2.6,2.1,4.8,4.8,4.8h35.5v55.6c0,2.6,2.1,4.8,4.8,4.8
		c2.6,0,4.8-2.1,4.8-4.8v-120C-303.2,2955.3-304.4,2953.5-306.3,2952.7z"/>
	<path id="XMLID_313_" class="st2" d="M-66.3,3021.8h-60.4c-2.6,0-4.8-2.1-4.8-4.8c0-2.6,2.1-4.8,4.8-4.8h60.4
		c2.6,0,4.8,2.1,4.8,4.8C-61.6,3019.7-63.7,3021.8-66.3,3021.8z"/>
	<path id="XMLID_312_" class="st2" d="M94.6,3082.2H-5.6c-2.8,0-5.1-2.3-5.1-5.1V2957c0-2.8,2.3-5.1,5.1-5.1H94.6
		c1.4,0,2.6,0.5,3.6,1.5l19.9,19.9c1,1,1.5,2.2,1.5,3.6v80.3c0,1.4-0.5,2.6-1.5,3.6l-19.9,19.9C97.2,3081.7,95.9,3082.2,94.6,3082.2
		z M-1.2,3072.7h93.9l17.3-17.3v-76.6l-17.3-17.3H-1.2V3072.7z"/>
	<path id="XMLID_311_" class="st2" d="M-609.9,2951.9L-609.9,2951.9h-20.9h-39.5c-2.6,0-4.8,2.1-4.8,4.8c0,2.6,2.1,4.8,4.8,4.8h28.8
		L-746,3066v-48.9c0-2.6-2.1-4.8-4.8-4.8c-2.6,0-4.8,2.1-4.8,4.8v59.6c0,2.1,1.2,3.9,3.1,4.7c0.6,0.3,1.3,0.4,1.9,0.4
		c1.3,0,2.6-0.5,3.6-1.5l119-118.9h18.1c2.6,0,4.7-2.1,4.7-4.8C-605.2,2954-607.3,2951.9-609.9,2951.9z"/>
	<path id="XMLID_310_" class="st5" d="M-284.5,3218.2H-310c-1.5,0-2.6-1.2-2.6-2.6v-59.7c0-1.5,1.2-2.6,2.6-2.6h25.6
		c1.5,0,2.6,1.2,2.6,2.6l0,0c0,1.5-1.2,2.6-2.6,2.6h-20c-1,0-2,0-2.9,0.1v23.1c0.9,0.2,1.9,0.2,2.9,0.2h20c1.5,0,2.6,1.2,2.6,2.6
		l0,0c0,1.5-1.2,2.6-2.6,2.6h-20c-1,0-2.1,0.1-2.9,0.3v22.9c0,1.5,1.2,2.6,2.6,2.6h20.3c1.5,0,2.6,1.2,2.6,2.6l0,0
		C-281.8,3217.1-283,3218.2-284.5,3218.2z"/>
	<path id="XMLID_309_" class="st5" d="M-234,3174.9L-234,3174.9c1.4,0,2.6,1.1,2.6,2.6v55.9c0,1.4-1.1,2.6-2.6,2.6l0,0
		c-1.4,0-2.6-1.1-2.6-2.6v-23.1c-3.8,5.3-10.1,8.6-17.2,8.6c-13.9,0-24.7-12.3-22.1-26.5c1.6-8.7,8.5-15.8,17.2-17.6
		c9.1-1.9,17.4,1.7,22,8.1v-5.3C-236.5,3176-235.4,3174.9-234,3174.9z M-253.7,3213.8c9.5,0,17.2-7.6,17.2-17.2
		c0-9.7-7.6-17.3-17.2-17.3c-9.7,0-17.3,7.6-17.3,17.3C-271.1,3206.2-263.4,3213.8-253.7,3213.8z"/>
	<path id="XMLID_308_" class="st5" d="M-192.7,3218.2L-192.7,3218.2c-1.4,0-2.5-1.1-2.5-2.5v-2.5c-3,3.5-7.6,5.7-12.8,5.7
		c-9.6,0-17.9-7.7-17.9-17.3v-24.2c0-1.4,1.1-2.5,2.5-2.5h0.2c1.4,0,2.5,1.1,2.5,2.5v23.4c0,7,5.5,12.9,12.5,13
		c6.9,0.1,13-4.1,13-12.2v-24.2c0-1.4,1.1-2.5,2.5-2.5h0.1c1.4,0,2.5,1.1,2.5,2.5v38.3C-190.2,3217.1-191.3,3218.2-192.7,3218.2z"/>
	<path id="XMLID_307_" class="st5" d="M-183.6,3166.6c0-1.6,1.3-2.8,2.9-2.8c1.4,0,2.8,1.3,2.8,2.8c0,1.6-1.3,2.9-2.8,2.9
		C-182.4,3169.4-183.6,3168.1-183.6,3166.6z M-180.8,3174.9L-180.8,3174.9c1.4,0,2.6,1.1,2.6,2.6v38.2c0,1.4-1.1,2.6-2.6,2.6l0,0
		c-1.4,0-2.6-1.1-2.6-2.6v-38.2C-183.4,3176-182.2,3174.9-180.8,3174.9z"/>
	<path id="XMLID_306_" class="st5" d="M-168.8,3174.9L-168.8,3174.9c1.4,0,2.6,1.1,2.6,2.6v5.3c4.6-6.3,12.9-10,21.9-8.1
		c8.7,1.8,15.6,8.8,17.3,17.5c2.7,14.3-8.1,26.7-22,26.7c-7.1,0-13.4-3.4-17.2-8.7v23.2c0,1.4-1.1,2.6-2.6,2.6l0,0
		c-1.4,0-2.6-1.1-2.6-2.6v-56C-171.3,3176-170.2,3174.9-168.8,3174.9z M-149,3179.3c-9.5,0-17.2,7.6-17.2,17.3
		c0,9.5,7.6,17.2,17.2,17.2c9.7,0,17.3-7.6,17.3-17.2C-131.7,3186.9-139.3,3179.3-149,3179.3z"/>
	<path id="XMLID_305_" class="st5" d="M-82.6,3211.2L-82.6,3211.2c0.5,1,0.3,2.3-0.6,3c-4.2,3-9.2,4.6-14.4,4.8
		c-12,0.3-22.5-9.1-23.1-21.1c-0.7-12.9,8.8-23.6,21.7-23.6c12.1,0,20.1,9.9,20.1,21.7c0,1-0.1,2-0.1,2.9h-36.6
		c1,8.7,8.3,15,17.3,15c4.2,0,8.7-1.2,12.4-3.5C-84.8,3209.6-83.3,3210-82.6,3211.2z M-115.5,3194.2h31.3
		c-0.3-7.7-6.1-14.9-14.9-14.9S-114.6,3185.8-115.5,3194.2z"/>
	<path id="XMLID_304_" class="st5" d="M-70.1,3174.9h0.2c1.4,0,2.5,1.1,2.5,2.5v2.5c3.1-3.5,7.5-5.6,12.7-5.6
		c6.6,0,12.2,3.5,15.4,8.7c3.1-5.2,8.8-8.7,15.4-8.7c9.7,0.1,17.7,8.7,17.7,18.5v23.1c0,1.4-1.1,2.5-2.5,2.5h-0.1
		c-1.4,0-2.5-1.1-2.5-2.5v-22.8c0-5.8-3.5-11.3-9-13c-8-2.6-16.5,3.5-16.7,11.4v24.4c0,1.4-1.1,2.5-2.5,2.5l0,0
		c-1.4,0-2.5-1.1-2.5-2.5v-23.7c0-7-5.7-13-12.8-13c-6.8,0-12.7,4.1-12.7,12.2v24.3c0,1.4-1.1,2.5-2.5,2.5h-0.2
		c-1.4,0-2.5-1.1-2.5-2.5v-38.4C-72.6,3176-71.5,3174.9-70.1,3174.9z"/>
	<path id="XMLID_303_" class="st5" d="M38.6,3211.2L38.6,3211.2c0.5,1,0.3,2.3-0.6,3c-4.1,3-9.2,4.6-14.4,4.8
		c-12,0.3-22.5-9.1-23.1-21.1c-0.7-12.9,8.8-23.6,21.7-23.6c12.1,0,20.1,9.9,20.1,21.7c0,1-0.1,2-0.1,2.9H5.6c1,8.7,8.3,15,17.3,15
		c4.2,0,8.7-1.2,12.4-3.5C36.4,3209.6,38,3210,38.6,3211.2z M5.7,3194.2H37c-0.3-7.7-6.1-14.9-14.9-14.9
		C13.3,3179.3,6.7,3185.8,5.7,3194.2z"/>
	<path id="XMLID_301_" class="st5" d="M51.2,3174.9L51.2,3174.9c1.4,0,2.5,1.2,2.5,2.6v2.3c3.1-3.5,7.5-5.6,12.7-5.6
		c9.6,0,17.9,7.6,17.9,17.2v24.4c0,1.4-1.1,2.5-2.5,2.5l0,0c-1.4,0-2.5-1.1-2.5-2.5v-23.5c0-7-5.8-13.1-12.8-13
		c-6.8,0-12.7,4.2-12.7,12.3v24.1c0,1.4-1.1,2.6-2.6,2.6l0,0c-1.4,0-2.6-1.1-2.6-2.6v-38.2C48.6,3176.1,49.8,3174.9,51.2,3174.9z"/>
	<path id="XMLID_299_" class="st5" d="M104.4,3162.5h0.3c1.3,0,2.4,1.1,2.4,2.4v10.3h9.9c1.3,0,2.4,1.1,2.4,2.4l0,0
		c0,1.3-1.1,2.4-2.4,2.4h-10v35.9c0,1.3-1.1,2.4-2.4,2.4h-0.3c-1.3,0-2.4-1.1-2.4-2.4V3180h-10c-1.3,0-2.4-1.1-2.4-2.4l0,0
		c0-1.3,1.1-2.4,2.4-2.4h10v-10.4C102,3163.6,103,3162.5,104.4,3162.5z"/>
</g>
</svg>
